<svg xmlns="http://www.w3.org/2000/svg" width="21" height="21" viewBox="0 0 21 21" fill="none">
<path d="M20.7229 18.4203C20.7229 19.6919 19.6919 20.7229 18.4203 20.7229H2.30254C1.03096 20.7229 0 19.6919 0 18.4203V2.30254C0 1.03096 1.03096 0 2.30254 0H18.4203C19.6919 0 20.7229 1.03096 20.7229 2.30254V18.4203Z" fill="#8AD777"/>
<path d="M16.8546 3.6622C16.1892 3.2299 15.2981 3.41928 14.8641 4.08587L8.59769 13.7445L5.70282 11.0678C5.11912 10.5278 4.20847 10.5641 3.66909 11.1472C3.12972 11.7309 3.16541 12.6415 3.74911 13.1809L7.89887 17.0181C8.17517 17.2743 8.52631 17.4009 8.87515 17.4009C9.26255 17.4009 9.75817 17.2386 10.0834 16.7452C10.2745 16.454 17.2789 5.65275 17.2789 5.65275C17.7112 4.98559 17.5212 4.0945 16.8546 3.6622Z" fill="white"/>
</svg>