<svg xmlns="http://www.w3.org/2000/svg" width="21" height="21" viewBox="0 0 21 21" fill="none">
<path d="M18.1325 0.2771H2.59036C1.15974 0.2771 0 1.43684 0 2.86746V18.4096C0 19.8402 1.15974 21 2.59036 21H18.1325C19.5631 21 20.7229 19.8402 20.7229 18.4096V2.86746C20.7229 1.43684 19.5631 0.2771 18.1325 0.2771Z" fill="#DA4453"/>
<path d="M5.12885 3.57457C4.73833 3.18404 4.10517 3.18404 3.71464 3.57457L3.29747 3.99174C2.90694 4.38227 2.90695 5.01543 3.29747 5.40595L7.82296 9.93144C8.21348 10.322 8.21348 10.9551 7.82296 11.3457L3.29747 15.8711C2.90694 16.2617 2.90695 16.8948 3.29747 17.2854L3.71464 17.7025C4.10517 18.093 4.73833 18.093 5.12885 17.7025L9.65434 13.177C10.0449 12.7865 10.678 12.7865 11.0686 13.177L15.594 17.7025C15.9846 18.093 16.6177 18.093 17.0083 17.7025L17.4254 17.2854C17.8159 16.8948 17.8159 16.2617 17.4254 15.8711L12.8999 11.3457C12.5094 10.9551 12.5094 10.322 12.8999 9.93144L17.4254 5.40595C17.8159 5.01543 17.8159 4.38227 17.4254 3.99174L17.0083 3.57457C16.6177 3.18404 15.9846 3.18404 15.594 3.57457L11.0686 8.10005C10.678 8.49058 10.0449 8.49058 9.65434 8.10005L5.12885 3.57457Z" fill="white"/>
</svg>