<svg class="wave" style="display: block;" xmlns="http://www.w3.org/2000/svg" width="261" height="46" viewBox="0 0 261 46" fill="none" >
    <path fill-rule="evenodd" clip-rule="evenodd" d="M0 30.7577L8.7 24.3772C17.4 17.9967 34.8 5.2357 52.2 1.33651C69.6 -2.56268 87 2.57716 104.4 10.1983C121.8 17.9967 139.2 28.0992 156.6 31.9984C174 35.7203 191.4 33.239 208.8 28.0992C226.2 22.9593 243.6 15.3382 252.3 11.6162L261 7.71701V46H252.3C243.6 46 226.2 46 208.8 46C191.4 46 174 46 156.6 46C139.2 46 121.8 46 104.4 46C87 46 69.6 46 52.2 46C34.8 46 17.4 46 8.7 46H0V30.7577Z" fill="#F3F4F2"/>
        </svg>